<svg xmlns="http://www.w3.org/2000/svg" width="18" height="24" viewBox="0 0 18 24"><path fill="#FFF" fill-rule="evenodd" d="M11.575 17.073c-1.215.547-2.491.547-3.767.547-.365 0-.699-.03-1.094-.03.03-1.64.03-3.22.06-4.83 1.672 0 3.312-.122 4.861.577.82.364 1.276.972 1.276 1.883-.03.912-.546 1.489-1.336 1.853M6.805 6.137c1.367 0 2.674-.091 3.95.455.82.365 1.215 1.033 1.184 1.854-.06.85-.547 1.488-1.427 1.762-1.216.394-2.462.364-3.737.334 0-1.459 0-2.886.03-4.405m10.39 8.02c-.152-1.063-.668-1.884-1.61-2.43-.425-.244-.912-.395-1.367-.608.06-.03.091-.091.121-.091 2.34-1.185 2.127-4.83.426-6.046a6.382 6.382 0 0 0-2.279-1.002c-.577-.122-1.155-.213-1.762-.334 0-1.033.03-2.492.03-3.646H8.568c0 1.124-.03 2.552-.03 3.585H6.775c0-1.033 0-2.43.03-3.585H4.618c0 1.154-.03 2.613-.03 3.646-1.49 0-2.947-.03-4.436-.03 0 .789 0 1.548-.03 2.338h.88c.274 0 .547 0 .82.03.76.062 1.155.487 1.155 1.246l-.091 9.388c0 .698-.304.972-.972.972H.456c-.152.88-.304 1.73-.456 2.612 1.489.03 2.947.03 4.436.061 0 1.124 0 2.552-.031 3.737h2.188c0-1.185.03-2.582.03-3.676.608.03 1.185.03 1.762.06 0 1.125 0 2.492-.03 3.616h2.187c0-1.185.03-2.552.03-3.646.091 0 .122-.03.183-.03 1.032-.152 2.095-.273 3.129-.516 1.336-.335 2.369-1.094 2.916-2.4.456-1.094.547-2.157.395-3.251"/></svg>