<svg width="33" height="41" viewBox="0 0 33 41" xmlns="http://www.w3.org/2000/svg"><path d="M.328 10.89c1.103-.29 2.156-.667 3.258-.957 1.103-.29 2.155-.667 3.258-.957.31-.063.347-.2.283-.51-.503-1.672-.957-3.258-1.46-4.93-.064-.31-.027-.446.282-.51a30.536 30.536 0 0 0 2.862-.844c.31-.063.36.024.373.247.454 1.585.957 3.258 1.41 4.843.05.087.1.174.114.397.793-.227 1.672-.504 2.465-.73.087-.05.073-.274.11-.41a53.236 53.236 0 0 1-1.034-3.791l-.34-1.19c-.1-.173-.063-.31.16-.323 1.016-.24 1.982-.567 3.084-.857.087-.05.137.037.224-.013.39 1.275.73 2.465 1.07 3.654.164.483.327.966.404 1.499.063.31.2.346.51.283l3.607-.351a8.483 8.483 0 0 1 3.452.778c1.53.85 2.416 2.185 2.87 3.77.29 1.103.444 2.17.15 3.262-.219.82-.712 1.566-1.255 2.226-.086.05-.123.187-.296.287.496.06.943.033 1.44.093 1.488.179 2.731.732 3.778 1.744.723.853 1.236 1.942 1.527 3.045.353 1.412.52 2.701.29 4.104-.302 1.676-1.164 2.982-2.45 3.955-1.669 1.31-3.5 2.137-5.383 2.877-.31.063-.433.25-.37.56.454 1.585.958 3.258 1.411 4.843.114.397.164.483-.37.56-.879.277-1.895.517-2.774.794-.31.063-.36-.023-.373-.247-.504-1.672-1.008-3.344-1.374-4.98-.1-.173-.064-.31-.287-.296-.793.227-1.586.453-2.465.73.277.88.467 1.81.744 2.688.276.88.467 1.81.743 2.689.014.223.064.31-.246.373-1.016.24-1.982.567-2.948.894-.31.063-.36-.023-.373-.247-.504-1.672-1.007-3.344-1.374-4.98-.05-.086-.014-.223-.114-.396a699.15 699.15 0 0 0-6.962 1.94c-.027-.445-.09-.755-.117-1.202-.104-.98-.207-1.959-.347-2.801-.064-.31.023-.36.283-.51.706-.177 1.499-.404 2.155-.667.793-.227 1.112-.873.849-1.53-1.424-5.066-2.848-10.133-4.41-15.236-.226-.793-1.109-1.323-2.038-1.132-.93.19-1.81.467-2.602.693-.173.1-.31.064-.323-.16-.29-1.102-.63-2.291-.92-3.394-.197.46-.197.46-.16.323zm16.767 18.841c.087-.05.223-.013.223-.013 1.586-.454 3.308-.87 4.83-1.634 1.09-.514 2.042-1.064 2.795-1.96 1.345-1.47.788-4.035-.964-4.87-.833-.443-1.776-.476-2.72-.51-2.058.035-4.077.738-6.009 1.392-.31.063-.26.15-.196.46.327.966.517 1.895.844 2.861.353 1.413.793 2.775 1.197 4.274zm2.175-13.033c.173-.1.556-.437.852-.724 1.446-1.296 1.212-3.701-.504-4.673-.883-.53-1.963-.6-2.942-.496-1.513.18-2.875.62-4.374 1.024-.31.064-.346.2-.283.51.617 2.069 1.184 4.05 1.714 6.17.014.223.15.26.374.246.396-.114.706-.177 1.102-.29 1.4-.577 2.675-.967 4.06-1.767z" fill="#FFF"/></svg>