<svg width="2000" height="2000" viewBox="0 0 2000 2000" xmlns="http://www.w3.org/2000/svg"><title>bitcoin-gold-seeklogo.com</title><g fill="#FFF"><path d="M947 0h104.16C1159.89 7.15 1268 28.85 1369 69.73c250 98.34 456.34 302.16 557 551.41 138.61 331.84 79.14 736.52-152.31 1012.58-156.6 192.15-386.86 323.14-632.73 356.4-230.73 32.9-472.79-16.81-670.15-141.49-152.19-94.76-278.17-231.24-359.81-391-104.66-200.7-136.48-437.9-90.48-659.37C69.74 552.84 216.22 329 420.49 184.64 573.52 74 759 11.68 947 0zm-62 45.29C580.79 80.22 301.19 271.77 156.15 541.15 58.06 720.31 18.85 931.52 48.53 1133.8c33.49 243.64 166 471.54 360 622.33 147.66 116.46 330.37 188 518 202 212.5 16.93 430.12-39.81 606.51-159.49 216.31-143.16 369.82-377.38 413.91-633.05 25.39-150.66 16.8-307.65-29.8-453.43-66.5-211.93-209-399.19-396-519.22C1335.2 70.92 1105.66 18 885.06 45.29H885z"/><path d="M909.13 439.12C1083 410 1269.53 467 1394.55 591.81c111 104.77 175.79 257.11 172.57 409.8 2.15 151.86-62.93 303-173.41 406.94-120.25 119.55-297.24 176.65-464.92 154.6-158-19-305.94-108.83-395.68-240.3C433.84 1182 406.43 994.58 458 830.45c60.42-201.92 242.77-359.86 451.1-391.32l.03-.01zm34.65 34.58c.12 49.707.16 99.413.12 149.12 24.787 0 49.577.04 74.37.12.12-51 .24-102 0-152.93-24.79.83-49.7 2-74.49 3.7v-.01zm178.89 151.51C1188 634 1258.21 644 1310.29 688.12c79.49 71.4 69.24 221.35-28.13 273.08 58.28 13.59 116 52.45 130.38 113.71 18.71 80.34 3.81 176.65-60.66 233.27-63.88 52.57-150.41 59.48-229.42 67 .36 46.49.24 93 .12 139.58 166.26-40.65 309.75-164.49 370.77-324.69 57.92-147.8 44.22-321.71-37.54-457.84-72.22-122.77-195-213-332.87-247.57-.36 46.84-.36 93.69-.24 140.53l-.03.02zm-496.24-2.02c72 3.46 144.09 2.74 216.19 2.62 0-43.86.12-87.73-.24-131.59-80.69 26.22-152.55 73.19-216 129l.05-.03zm-84.08 113.03c-84.74 144.35-94.27 329.46-23.6 481.32 61 136.12 182 242 323.69 287.62.24-43.75.12-87.61.12-131.35-72.34-.72-144.8 1.91-217-2 4.74-8.359 16.636-78.309 24-117.65 35.4-.72 72.34 5.48 106.55-6.08 20-16.81 14.3-44.58 15.37-67.58-1.07-131.47.48-262.95-.72-394.42 1.31-21.22-12-44.1-34-48.27-36.35-7.27-73.65-4.41-110.36-4.65 0-32.692-3.69-99.65-9.3-106.92-32.975 41.8-53.77 70.66-74.75 109.98zM946.91 742v193.82c64.71-1.19 136.46 6 193.07-31.59 47-30.75 44-108.71-4.53-136.36-56.61-33.61-125.74-24.08-188.54-25.87zm0 298.11v215c79.85-6.44 169.47 7 239-41.24 49.7-33 43.74-114.67-7.51-143.27-69.6-41.6-154.22-28.37-231.45-30.51l-.04.02zm-2.96 336.59c0 49.707-.08 99.45-.24 149.23 25.86 1.67 51.72 2.74 77.59 3.46.24-50.9.12-101.79.12-152.69h-77.47z"/><path d="M890.77 97.15c175.2-18.83 356.59 7.87 514 88.68 202.49 99.29 364.45 277.85 444.19 488.71 81.4 211.22 79.61 452.83-4.65 663-128.24 331.25-466.71 569.52-823.06 570-209.28 7.63-419.87-62.82-583.75-193-174.84-135.88-295.69-339-333-557.25-38.1-216.22 4.57-445.92 120.18-632.82C365.9 290.13 619 128.14 890.77 97.15zm-30.51 293.47C717.84 422.68 587.7 506.83 500.34 623.88 404 750.71 359.83 915.56 379.49 1073.5c18.47 169 110.84 328.39 248.13 428.51 128.48 96.55 295.45 139 454.55 117.17 196.53-24 377.21-149.12 468.86-324.57 68.65-125.16 87.48-274 62.33-413.73-32.06-169.38-137.89-323.26-285.08-413.14-137.89-85.74-309.86-113.24-468.02-77.12z"/></g></svg>