<svg xmlns="http://www.w3.org/2000/svg" width="12" height="13" viewBox="0 0 12 13"><g fill="#2632A6" fill-rule="evenodd"><path d="M5.982 10.544c1.454 0 2.907 0 4.361.003.118 0 .156-.029.155-.151-.003-2.233-.003-4.466 0-6.699.001-.13-.036-.158-.16-.158-2.896.004-5.791.004-8.686 0-.124 0-.162.027-.162.158.004 2.228.003 4.457.003 6.686 0 .161 0 .161.164.161h4.325"/><path d="M5.994 11.042h4.837c.162 0 .162 0 .162-.162V3.207c0-.162 0-.163-.162-.163H1.158c-.162 0-.162 0-.162.163v7.672c0 .163 0 .163.162.163h4.836zM0 12.034h11.984V.05H0v11.984z"/></g></svg>