<svg xmlns="http://www.w3.org/2000/svg" xmlns:xlink="http://www.w3.org/1999/xlink" width="43" height="43" viewBox="0 0 43 43"><defs><path id="a" d="M0 .931h41.39V42.32H0z"/></defs><g fill="none" fill-rule="evenodd"><g transform="translate(.8 -.091)"><mask id="b" fill="#fff"><use xlink:href="#a"/></mask><path fill="#B31569" d="M20.37 27.705c.163.114.29.2.416.292 1.151.858 2.3 1.719 3.453 2.574.16.12.33.236.51.328.605.314 1.041.211 1.419-.357.128-.193.224-.423.274-.652.767-3.588 1.523-7.176 2.283-10.764.388-1.836.782-3.669 1.161-5.507.206-1.006-.449-1.619-1.424-1.347a11 11 0 0 0-.88.302c-4.97 1.916-9.94 3.831-14.907 5.758-1.49.58-2.975 1.18-4.455 1.788a1.929 1.929 0 0 0-.613.421c-.277.286-.257.51.063.755.212.162.455.309.707.39 1.034.338 2.07.67 3.117.96.467.131.719.315.868.84.561 1.987 1.214 3.95 1.827 5.924.447 1.437 1.895 1.982 3.17 1.167.339-.22.644-.497.933-.779.7-.684 1.38-1.389 2.078-2.093m21.022-6.065c-.002 11.426-9.257 20.676-20.693 20.68C9.216 42.323-.006 33.064.001 21.539.006 10.179 9.287.934 20.69.93c11.45-.004 20.7 9.253 20.7 20.709" mask="url(#b)"/></g><path fill="#A63863" d="M14.33 23c2.494-1.574 4.958-3.134 7.425-4.69a332.532 332.532 0 0 1 4.052-2.514c.232-.142.52-.196.78-.288.03.041.057.085.087.126-.151.185-.284.392-.46.552-2.38 2.165-4.768 4.322-7.147 6.49-.574.522-1.126 1.07-1.69 1.61-.14.134-.224.255-.148.494.066.212-.02.471-.037.709l-.283 3.829c-.006.07-.015.14-.024.226-.41.059-.56-.18-.66-.502-.47-1.505-.943-3.009-1.414-4.514-.158-.498-.315-1-.48-1.529"/><path fill="#A63863" d="M18.225 28.715c.073-1.014.147-2.008.224-3.064l1.603 1.19-1.827 1.874"/></g></svg>